M48
;DRILL file {KiCad 4.0.3-stable} date 09/28/16 16:40:34
;FORMAT={-:-/ absolute / metric / decimal}
FMAT,2
METRIC,TZ
T1C0.600
T2C1.016
T3C3.048
T4C0.899
%
G90
G05
M71
T1
X122.682Y-106.299
X125.095Y-100.584
X146.998Y-86.965
X146.998Y-96.765
X149.398Y-99.165
X151.598Y-105.965
X151.598Y-112.165
X157.598Y-97.565
X158.398Y-93.165
X160.198Y-94.165
X176.198Y-79.765
T2
X115.062Y-85.725
X115.062Y-88.265
X115.062Y-90.805
X117.602Y-85.725
X117.602Y-88.265
X117.602Y-90.805
X128.27Y-83.312
X129.794Y-75.565
X130.81Y-83.312
X131.318Y-108.839
X131.318Y-112.649
X132.334Y-75.565
X133.858Y-108.839
X133.858Y-112.649
X134.874Y-75.565
X137.414Y-75.565
X138.938Y-123.825
X139.954Y-75.565
X141.478Y-123.825
X142.494Y-75.565
X144.018Y-123.825
X145.034Y-75.565
X146.558Y-123.825
X147.574Y-75.565
X149.098Y-123.825
X150.114Y-75.565
X151.638Y-123.825
X152.654Y-75.565
X152.998Y-115.365
X152.998Y-117.905
X154.178Y-123.825
X156.398Y-115.365
X156.398Y-117.905
X156.718Y-75.565
X156.718Y-123.825
X159.258Y-75.565
X161.798Y-75.565
X161.798Y-123.825
X164.338Y-75.565
X164.338Y-123.825
X166.878Y-75.565
X166.878Y-123.825
X169.418Y-75.565
X169.418Y-123.825
X171.958Y-75.565
X171.958Y-123.825
X174.498Y-75.565
X174.498Y-123.825
T3
X124.968Y-123.825
X126.238Y-75.565
X177.038Y-90.805
X177.038Y-118.745
T4
X116.421Y-117.053
X116.421Y-121.453
T0
M30
