G04 #@! TF.FileFunction,Copper,L1,Top,Signal*
%FSLAX46Y46*%
G04 Gerber Fmt 4.6, Leading zero omitted, Abs format (unit mm)*
G04 Created by KiCad (PCBNEW 4.0.3-stable) date 08/23/16 13:58:01*
%MOMM*%
%LPD*%
G01*
G04 APERTURE LIST*
%ADD10C,0.100000*%
%ADD11C,0.250000*%
%ADD12C,4.064000*%
%ADD13O,1.727200X2.032000*%
%ADD14R,1.250000X1.000000*%
%ADD15R,2.999740X1.600200*%
%ADD16R,1.000000X1.250000*%
%ADD17R,2.032000X3.657600*%
%ADD18R,2.032000X1.016000*%
%ADD19R,0.600000X1.200000*%
%ADD20R,1.200000X0.600000*%
%ADD21R,2.032000X2.032000*%
%ADD22O,2.032000X2.032000*%
%ADD23R,1.597660X1.800860*%
%ADD24R,0.450000X0.590000*%
%ADD25R,0.700000X1.300000*%
%ADD26R,1.700000X0.900000*%
%ADD27R,1.550000X1.300000*%
%ADD28R,2.100580X5.600700*%
%ADD29R,1.727200X1.727200*%
%ADD30O,1.727200X1.727200*%
%ADD31R,1.550000X0.600000*%
%ADD32R,2.301240X0.500380*%
%ADD33R,2.499360X1.998980*%
%ADD34C,0.800000*%
%ADD35C,0.400000*%
%ADD36C,0.300000*%
G04 APERTURE END LIST*
D10*
D11*
X135214572Y-102085857D02*
X135900286Y-102085857D01*
X135557429Y-103285857D02*
X135557429Y-102085857D01*
X136300286Y-103285857D02*
X136300286Y-102085857D01*
X136814572Y-103285857D02*
X136814572Y-102657286D01*
X136757429Y-102543000D01*
X136643143Y-102485857D01*
X136471715Y-102485857D01*
X136357429Y-102543000D01*
X136300286Y-102600143D01*
X137843143Y-103228714D02*
X137728857Y-103285857D01*
X137500286Y-103285857D01*
X137386000Y-103228714D01*
X137328857Y-103114429D01*
X137328857Y-102657286D01*
X137386000Y-102543000D01*
X137500286Y-102485857D01*
X137728857Y-102485857D01*
X137843143Y-102543000D01*
X137900286Y-102657286D01*
X137900286Y-102771571D01*
X137328857Y-102885857D01*
X138871714Y-103228714D02*
X138757428Y-103285857D01*
X138528857Y-103285857D01*
X138414571Y-103228714D01*
X138357428Y-103114429D01*
X138357428Y-102657286D01*
X138414571Y-102543000D01*
X138528857Y-102485857D01*
X138757428Y-102485857D01*
X138871714Y-102543000D01*
X138928857Y-102657286D01*
X138928857Y-102771571D01*
X138357428Y-102885857D01*
X139443142Y-103285857D02*
X139443142Y-102085857D01*
X139728857Y-102085857D01*
X139900285Y-102143000D01*
X140014571Y-102257286D01*
X140071714Y-102371571D01*
X140128857Y-102600143D01*
X140128857Y-102771571D01*
X140071714Y-103000143D01*
X140014571Y-103114429D01*
X139900285Y-103228714D01*
X139728857Y-103285857D01*
X139443142Y-103285857D01*
X141157428Y-102485857D02*
X141157428Y-103285857D01*
X140643142Y-102485857D02*
X140643142Y-103114429D01*
X140700285Y-103228714D01*
X140814571Y-103285857D01*
X140985999Y-103285857D01*
X141100285Y-103228714D01*
X141157428Y-103171571D01*
X141728856Y-103285857D02*
X141728856Y-102485857D01*
X141728856Y-102085857D02*
X141671713Y-102143000D01*
X141728856Y-102200143D01*
X141785999Y-102143000D01*
X141728856Y-102085857D01*
X141728856Y-102200143D01*
X142300285Y-102485857D02*
X142300285Y-103285857D01*
X142300285Y-102600143D02*
X142357428Y-102543000D01*
X142471714Y-102485857D01*
X142643142Y-102485857D01*
X142757428Y-102543000D01*
X142814571Y-102657286D01*
X142814571Y-103285857D01*
X143557428Y-103285857D02*
X143443142Y-103228714D01*
X143385999Y-103171571D01*
X143328856Y-103057286D01*
X143328856Y-102714429D01*
X143385999Y-102600143D01*
X143443142Y-102543000D01*
X143557428Y-102485857D01*
X143728856Y-102485857D01*
X143843142Y-102543000D01*
X143900285Y-102600143D01*
X143957428Y-102714429D01*
X143957428Y-103057286D01*
X143900285Y-103171571D01*
X143843142Y-103228714D01*
X143728856Y-103285857D01*
X143557428Y-103285857D01*
X145271714Y-102485857D02*
X145557428Y-103285857D01*
X145843142Y-102485857D01*
X146528857Y-102085857D02*
X146643142Y-102085857D01*
X146757428Y-102143000D01*
X146814571Y-102200143D01*
X146871714Y-102314429D01*
X146928857Y-102543000D01*
X146928857Y-102828714D01*
X146871714Y-103057286D01*
X146814571Y-103171571D01*
X146757428Y-103228714D01*
X146643142Y-103285857D01*
X146528857Y-103285857D01*
X146414571Y-103228714D01*
X146357428Y-103171571D01*
X146300285Y-103057286D01*
X146243142Y-102828714D01*
X146243142Y-102543000D01*
X146300285Y-102314429D01*
X146357428Y-102200143D01*
X146414571Y-102143000D01*
X146528857Y-102085857D01*
X147443142Y-103171571D02*
X147500285Y-103228714D01*
X147443142Y-103285857D01*
X147385999Y-103228714D01*
X147443142Y-103171571D01*
X147443142Y-103285857D01*
X148643143Y-103285857D02*
X147957428Y-103285857D01*
X148300286Y-103285857D02*
X148300286Y-102085857D01*
X148186000Y-102257286D01*
X148071714Y-102371571D01*
X147957428Y-102428714D01*
D12*
X124968000Y-123825000D03*
X177038000Y-118745000D03*
X126238000Y-75565000D03*
X177038000Y-90805000D03*
D13*
X161798000Y-123825000D03*
X164338000Y-123825000D03*
X166878000Y-123825000D03*
X169418000Y-123825000D03*
X171958000Y-123825000D03*
X174498000Y-123825000D03*
D14*
X122936000Y-113395000D03*
X122936000Y-111395000D03*
D15*
X117769640Y-98171000D03*
X113370360Y-98171000D03*
D14*
X151892000Y-111395000D03*
X151892000Y-113395000D03*
X137414000Y-87519000D03*
X137414000Y-89519000D03*
D16*
X113046000Y-82169000D03*
X115046000Y-82169000D03*
D14*
X137414000Y-95615000D03*
X137414000Y-93615000D03*
D16*
X160004000Y-82677000D03*
X158004000Y-82677000D03*
X134890000Y-79375000D03*
X136890000Y-79375000D03*
D17*
X112522000Y-106299000D03*
D18*
X119126000Y-106299000D03*
X119126000Y-104013000D03*
X119126000Y-108585000D03*
D19*
X165106000Y-85793000D03*
X164306000Y-85793000D03*
X163506000Y-85793000D03*
X162706000Y-85793000D03*
X161906000Y-85793000D03*
X161106000Y-85793000D03*
X160306000Y-85793000D03*
X159506000Y-85793000D03*
D20*
X158056000Y-87243000D03*
X158056000Y-88043000D03*
X158056000Y-88843000D03*
X158056000Y-89643000D03*
X158056000Y-90443000D03*
X158056000Y-91243000D03*
X158056000Y-92043000D03*
X158056000Y-92843000D03*
D19*
X159506000Y-94293000D03*
X160306000Y-94293000D03*
X161106000Y-94293000D03*
X161906000Y-94293000D03*
X162706000Y-94293000D03*
X163506000Y-94293000D03*
X164306000Y-94293000D03*
X165106000Y-94293000D03*
D20*
X166556000Y-92843000D03*
X166556000Y-92043000D03*
X166556000Y-91243000D03*
X166556000Y-90443000D03*
X166556000Y-89643000D03*
X166556000Y-88843000D03*
X166556000Y-88043000D03*
X166556000Y-87243000D03*
D13*
X152654000Y-75565000D03*
X150114000Y-75565000D03*
X147574000Y-75565000D03*
X145034000Y-75565000D03*
X142494000Y-75565000D03*
X139954000Y-75565000D03*
X137414000Y-75565000D03*
X134874000Y-75565000D03*
X132334000Y-75565000D03*
X129794000Y-75565000D03*
X174498000Y-75565000D03*
X171958000Y-75565000D03*
X169418000Y-75565000D03*
X166878000Y-75565000D03*
X164338000Y-75565000D03*
X161798000Y-75565000D03*
X159258000Y-75565000D03*
X156718000Y-75565000D03*
D21*
X131318000Y-108839000D03*
D22*
X133858000Y-108839000D03*
D21*
X131318000Y-112649000D03*
D22*
X133858000Y-112649000D03*
D21*
X130810000Y-83312000D03*
D22*
X128270000Y-83312000D03*
D21*
X151130000Y-104521000D03*
D22*
X151130000Y-101981000D03*
D21*
X154686000Y-104521000D03*
D22*
X154686000Y-101981000D03*
D23*
X132737860Y-98425000D03*
X129898140Y-98425000D03*
X132737860Y-91567000D03*
X129898140Y-91567000D03*
D24*
X122936000Y-115658000D03*
X122936000Y-117768000D03*
D25*
X130876000Y-102235000D03*
X132776000Y-102235000D03*
X130876000Y-88265000D03*
X132776000Y-88265000D03*
D26*
X140716000Y-118671000D03*
X140716000Y-115771000D03*
X137922000Y-118671000D03*
X137922000Y-115771000D03*
X143510000Y-115771000D03*
X143510000Y-118671000D03*
X146304000Y-115771000D03*
X146304000Y-118671000D03*
X121412000Y-85397000D03*
X121412000Y-82497000D03*
D27*
X113373000Y-74331000D03*
X121323000Y-74331000D03*
X113373000Y-78831000D03*
X121323000Y-78831000D03*
D28*
X141478000Y-86972140D03*
X141478000Y-96669860D03*
D13*
X138938000Y-123825000D03*
X141478000Y-123825000D03*
X144018000Y-123825000D03*
X146558000Y-123825000D03*
X149098000Y-123825000D03*
X151638000Y-123825000D03*
X154178000Y-123825000D03*
X156718000Y-123825000D03*
D29*
X117602000Y-90805000D03*
D30*
X115062000Y-90805000D03*
X117602000Y-88265000D03*
X115062000Y-88265000D03*
X117602000Y-85725000D03*
X115062000Y-85725000D03*
D31*
X142080000Y-108712000D03*
X142080000Y-109982000D03*
X142080000Y-111252000D03*
X142080000Y-112522000D03*
X147480000Y-112522000D03*
X147480000Y-111252000D03*
X147480000Y-109982000D03*
X147480000Y-108712000D03*
D32*
X119019320Y-117652800D03*
X119019320Y-118452900D03*
X119019320Y-119253000D03*
X119019320Y-120053100D03*
X119019320Y-120853200D03*
D33*
X118920260Y-114802920D03*
X113421160Y-114802920D03*
X118920260Y-123703080D03*
X113421160Y-123703080D03*
D25*
X125034000Y-106299000D03*
X126934000Y-106299000D03*
D34*
X136017000Y-82550000D03*
X124206000Y-78613000D03*
X156464000Y-85725000D03*
X144780000Y-85471000D03*
X160274000Y-90551000D03*
X122682000Y-106299000D03*
X171958000Y-92837000D03*
X176276000Y-79375000D03*
X171704000Y-90551000D03*
X159004000Y-109601000D03*
X144780000Y-86741000D03*
X155956000Y-86741000D03*
X165100000Y-88519000D03*
X125095000Y-100584000D03*
X145796000Y-96647000D03*
X155956000Y-88011000D03*
X162687000Y-89662000D03*
D35*
X119126000Y-104013000D02*
X125945000Y-104013000D01*
X125945000Y-115658000D02*
X125945000Y-104013000D01*
X125945000Y-104013000D02*
X125945000Y-103544000D01*
X125945000Y-103544000D02*
X125984000Y-103505000D01*
X127254000Y-102235000D02*
X130876000Y-102235000D01*
X125984000Y-103505000D02*
X127254000Y-102235000D01*
X149098000Y-123825000D02*
X149098000Y-125349000D01*
X125945000Y-115658000D02*
X122936000Y-115658000D01*
X136144000Y-125857000D02*
X125945000Y-115658000D01*
X148590000Y-125857000D02*
X136144000Y-125857000D01*
X149098000Y-125349000D02*
X148590000Y-125857000D01*
X122936000Y-115658000D02*
X122936000Y-113395000D01*
X121323000Y-74331000D02*
X122591000Y-74331000D01*
X123190000Y-77597000D02*
X124206000Y-78613000D01*
X123190000Y-74930000D02*
X123190000Y-77597000D01*
X122591000Y-74331000D02*
X123190000Y-74930000D01*
X136017000Y-82550000D02*
X136398000Y-82550000D01*
X136017000Y-82550000D02*
X136398000Y-82550000D01*
X136398000Y-82550000D02*
X141859000Y-82550000D01*
X156532000Y-85793000D02*
X159506000Y-85793000D01*
X156464000Y-85725000D02*
X156532000Y-85793000D01*
X141859000Y-82550000D02*
X144780000Y-85471000D01*
X163506000Y-94293000D02*
X163506000Y-107385000D01*
X163506000Y-107385000D02*
X157607000Y-113284000D01*
X157607000Y-113284000D02*
X157480000Y-113411000D01*
X157464000Y-113395000D02*
X151892000Y-113395000D01*
X157480000Y-113411000D02*
X157464000Y-113395000D01*
X151908000Y-113411000D02*
X151892000Y-113395000D01*
X159506000Y-85793000D02*
X159512000Y-85799000D01*
X129898140Y-95123000D02*
X133350000Y-95123000D01*
X134858000Y-93615000D02*
X137414000Y-93615000D01*
X133350000Y-95123000D02*
X134858000Y-93615000D01*
X129898140Y-98425000D02*
X129898140Y-95123000D01*
X129898140Y-95123000D02*
X129898140Y-91567000D01*
X115046000Y-82169000D02*
X116332000Y-82169000D01*
X116332000Y-82169000D02*
X117602000Y-80899000D01*
X117602000Y-80899000D02*
X117602000Y-78052000D01*
X117602000Y-78052000D02*
X121323000Y-74331000D01*
X113373000Y-74331000D02*
X121323000Y-74331000D01*
X115046000Y-82169000D02*
X115062000Y-82169000D01*
X137414000Y-89519000D02*
X136128000Y-89519000D01*
X135890000Y-82677000D02*
X136017000Y-82550000D01*
X135128000Y-83439000D02*
X135890000Y-82677000D01*
X135128000Y-83693000D02*
X135128000Y-83439000D01*
X135128000Y-88519000D02*
X135128000Y-83693000D01*
X136128000Y-89519000D02*
X135128000Y-88519000D01*
X136890000Y-81677000D02*
X136890000Y-79375000D01*
X136017000Y-82550000D02*
X136890000Y-81677000D01*
X119126000Y-108585000D02*
X115824000Y-108585000D01*
X113370360Y-100543360D02*
X113370360Y-98171000D01*
X114808000Y-101981000D02*
X113370360Y-100543360D01*
X114808000Y-107569000D02*
X114808000Y-101981000D01*
X115824000Y-108585000D02*
X114808000Y-107569000D01*
X113370360Y-98171000D02*
X113370360Y-95463360D01*
X112776000Y-85725000D02*
X115062000Y-85725000D01*
X111760000Y-86741000D02*
X112776000Y-85725000D01*
X111760000Y-93853000D02*
X111760000Y-86741000D01*
X113370360Y-95463360D02*
X111760000Y-93853000D01*
X115062000Y-85725000D02*
X115062000Y-82185000D01*
X115062000Y-82185000D02*
X115046000Y-82169000D01*
X159506000Y-85793000D02*
X159506000Y-84703000D01*
X159506000Y-84703000D02*
X159004000Y-84201000D01*
X159004000Y-84201000D02*
X158242000Y-84201000D01*
X158242000Y-84201000D02*
X158004000Y-83963000D01*
X158004000Y-83963000D02*
X158004000Y-82677000D01*
X122936000Y-111395000D02*
X122936000Y-109093000D01*
X122428000Y-108585000D02*
X119126000Y-108585000D01*
X122936000Y-109093000D02*
X122428000Y-108585000D01*
X118920260Y-114802920D02*
X118920260Y-108790740D01*
X118920260Y-108790740D02*
X119126000Y-108585000D01*
X119019320Y-120853200D02*
X119019320Y-123604020D01*
X119019320Y-123604020D02*
X118920260Y-123703080D01*
X151892000Y-113395000D02*
X151892000Y-123571000D01*
X151892000Y-123571000D02*
X151638000Y-123825000D01*
X147480000Y-112522000D02*
X148971000Y-112522000D01*
X149844000Y-113395000D02*
X151892000Y-113395000D01*
X148971000Y-112522000D02*
X149844000Y-113395000D01*
X136890000Y-79375000D02*
X136890000Y-78121000D01*
X136890000Y-78121000D02*
X137414000Y-77597000D01*
X137414000Y-77597000D02*
X137414000Y-75565000D01*
X137414000Y-93615000D02*
X137414000Y-89519000D01*
X161906000Y-94293000D02*
X161906000Y-92183000D01*
X161906000Y-92183000D02*
X160274000Y-90551000D01*
X160306000Y-90519000D02*
X160306000Y-85793000D01*
X160274000Y-90551000D02*
X160306000Y-90519000D01*
X121412000Y-85397000D02*
X121412000Y-86233000D01*
X121412000Y-85397000D02*
X121412000Y-85725000D01*
X121412000Y-86233000D02*
X120650000Y-86995000D01*
X120650000Y-86995000D02*
X116840000Y-86995000D01*
X116840000Y-86995000D02*
X116332000Y-87503000D01*
X116332000Y-87503000D02*
X116332000Y-89535000D01*
X116332000Y-89535000D02*
X115062000Y-90805000D01*
X119126000Y-106299000D02*
X122428000Y-106299000D01*
X122428000Y-106299000D02*
X122682000Y-106299000D01*
X122682000Y-106299000D02*
X125034000Y-106299000D01*
X146304000Y-118671000D02*
X146304000Y-121031000D01*
X137922000Y-118671000D02*
X140716000Y-118671000D01*
X140716000Y-118671000D02*
X143510000Y-118671000D01*
X115062000Y-93853000D02*
X115062000Y-90805000D01*
X143510000Y-118671000D02*
X146304000Y-118671000D01*
X160306000Y-85793000D02*
X160306000Y-82979000D01*
X160306000Y-82979000D02*
X160004000Y-82677000D01*
X160306000Y-82979000D02*
X160004000Y-82677000D01*
X160306000Y-82979000D02*
X160004000Y-82677000D01*
X117769640Y-96560640D02*
X115062000Y-93853000D01*
X146304000Y-121031000D02*
X146304000Y-123571000D01*
X146304000Y-123571000D02*
X146558000Y-123825000D01*
X117769640Y-98171000D02*
X117769640Y-96560640D01*
X117769640Y-98171000D02*
X117769640Y-100797360D01*
X117602000Y-106299000D02*
X119126000Y-106299000D01*
X116586000Y-105283000D02*
X117602000Y-106299000D01*
X116586000Y-101981000D02*
X116586000Y-105283000D01*
X117769640Y-100797360D02*
X116586000Y-101981000D01*
X164306000Y-94293000D02*
X164306000Y-108363000D01*
X161798000Y-110871000D02*
X161798000Y-123825000D01*
X164306000Y-108363000D02*
X161798000Y-110871000D01*
X165106000Y-94293000D02*
X165106000Y-115437000D01*
X164338000Y-116205000D02*
X164338000Y-123825000D01*
X165106000Y-115437000D02*
X164338000Y-116205000D01*
X166556000Y-92843000D02*
X166556000Y-115375000D01*
X166878000Y-115697000D02*
X166878000Y-123825000D01*
X166556000Y-115375000D02*
X166878000Y-115697000D01*
X166556000Y-92043000D02*
X168624000Y-92043000D01*
X168624000Y-92043000D02*
X169418000Y-92837000D01*
X169418000Y-92837000D02*
X169418000Y-123825000D01*
X176276000Y-74803000D02*
X176276000Y-79375000D01*
X132334000Y-75565000D02*
X132334000Y-74295000D01*
X132334000Y-74295000D02*
X132842000Y-73787000D01*
X166556000Y-91243000D02*
X170364000Y-91243000D01*
X171958000Y-92837000D02*
X171958000Y-123825000D01*
X132842000Y-73787000D02*
X175260000Y-73787000D01*
X170364000Y-91243000D02*
X171958000Y-92837000D01*
X175260000Y-73787000D02*
X176276000Y-74803000D01*
X166556000Y-90443000D02*
X171596000Y-90443000D01*
X171596000Y-90443000D02*
X171704000Y-90551000D01*
X174498000Y-123825000D02*
X174498000Y-120523000D01*
X174498000Y-120523000D02*
X173736000Y-119761000D01*
X173736000Y-119761000D02*
X173736000Y-92583000D01*
X173736000Y-92583000D02*
X171704000Y-90551000D01*
D36*
X166664000Y-90551000D02*
X166556000Y-90443000D01*
D35*
X151892000Y-111395000D02*
X157210000Y-111395000D01*
X157210000Y-111395000D02*
X159004000Y-109601000D01*
X147480000Y-111252000D02*
X151749000Y-111252000D01*
X151749000Y-111252000D02*
X151892000Y-111395000D01*
X158056000Y-87243000D02*
X156712000Y-87243000D01*
X144548860Y-86972140D02*
X141478000Y-86972140D01*
X144780000Y-86741000D02*
X144548860Y-86972140D01*
X156210000Y-86741000D02*
X155956000Y-86741000D01*
X156712000Y-87243000D02*
X156210000Y-86741000D01*
X137414000Y-87519000D02*
X140931140Y-87519000D01*
X140931140Y-87519000D02*
X141478000Y-86972140D01*
X165106000Y-88513000D02*
X165106000Y-85793000D01*
X165100000Y-88519000D02*
X165106000Y-88513000D01*
X121412000Y-82497000D02*
X124661000Y-82497000D01*
X125095000Y-82931000D02*
X125095000Y-100584000D01*
X124661000Y-82497000D02*
X125095000Y-82931000D01*
X144018000Y-123825000D02*
X144018000Y-121539000D01*
X144018000Y-121539000D02*
X143256000Y-120777000D01*
X143256000Y-120777000D02*
X134112000Y-120777000D01*
X134112000Y-120777000D02*
X131318000Y-117983000D01*
X131318000Y-117983000D02*
X131318000Y-112649000D01*
X121412000Y-82497000D02*
X121412000Y-78920000D01*
X121412000Y-78920000D02*
X121323000Y-78831000D01*
X113046000Y-82169000D02*
X113046000Y-79158000D01*
X113046000Y-79158000D02*
X113373000Y-78831000D01*
X117602000Y-85725000D02*
X117602000Y-82931000D01*
X117602000Y-82931000D02*
X118036000Y-82497000D01*
X118036000Y-82497000D02*
X121412000Y-82497000D01*
X158056000Y-88043000D02*
X155988000Y-88043000D01*
X145773140Y-96669860D02*
X141478000Y-96669860D01*
X145796000Y-96647000D02*
X145773140Y-96669860D01*
X155988000Y-88043000D02*
X155956000Y-88011000D01*
X137414000Y-95615000D02*
X140423140Y-95615000D01*
X140423140Y-95615000D02*
X141478000Y-96669860D01*
X134890000Y-79375000D02*
X134890000Y-75581000D01*
X134890000Y-75581000D02*
X134874000Y-75565000D01*
X119019320Y-117652800D02*
X122820800Y-117652800D01*
X122820800Y-117652800D02*
X122936000Y-117768000D01*
X160306000Y-94293000D02*
X160306000Y-95853000D01*
X142494000Y-77851000D02*
X142494000Y-75565000D01*
X142748000Y-78105000D02*
X142494000Y-77851000D01*
X147066000Y-82423000D02*
X142748000Y-78105000D01*
X147066000Y-88773000D02*
X147066000Y-82423000D01*
X154432000Y-96139000D02*
X147066000Y-88773000D01*
X160020000Y-96139000D02*
X154432000Y-96139000D01*
X160306000Y-95853000D02*
X160020000Y-96139000D01*
X161106000Y-94293000D02*
X161106000Y-96069000D01*
X139954000Y-79121000D02*
X139954000Y-75565000D01*
X141224000Y-80391000D02*
X139954000Y-79121000D01*
X144018000Y-80391000D02*
X141224000Y-80391000D01*
X146050000Y-82423000D02*
X144018000Y-80391000D01*
X146050000Y-88773000D02*
X146050000Y-82423000D01*
X154432000Y-97155000D02*
X146050000Y-88773000D01*
X160020000Y-97155000D02*
X154432000Y-97155000D01*
X161106000Y-96069000D02*
X160020000Y-97155000D01*
X159506000Y-94293000D02*
X154618000Y-94293000D01*
X145034000Y-79375000D02*
X145034000Y-75565000D01*
X148082000Y-82423000D02*
X145034000Y-79375000D01*
X148082000Y-87757000D02*
X148082000Y-82423000D01*
X154618000Y-94293000D02*
X148082000Y-87757000D01*
X142080000Y-111252000D02*
X143637000Y-111252000D01*
X142060000Y-114427000D02*
X140716000Y-115771000D01*
X143256000Y-114427000D02*
X142060000Y-114427000D01*
X143764000Y-113919000D02*
X143256000Y-114427000D01*
X143764000Y-111379000D02*
X143764000Y-113919000D01*
X143637000Y-111252000D02*
X143764000Y-111379000D01*
X140896000Y-115771000D02*
X140716000Y-115771000D01*
X140716000Y-115771000D02*
X140896000Y-115771000D01*
X142080000Y-111252000D02*
X139827000Y-111252000D01*
X137414000Y-108839000D02*
X133858000Y-108839000D01*
X139827000Y-111252000D02*
X137414000Y-108839000D01*
X133858000Y-112649000D02*
X133858000Y-115697000D01*
X133932000Y-115771000D02*
X137922000Y-115771000D01*
X133858000Y-115697000D02*
X133932000Y-115771000D01*
X142080000Y-112522000D02*
X139827000Y-112522000D01*
X137922000Y-114427000D02*
X137922000Y-115771000D01*
X139827000Y-112522000D02*
X137922000Y-114427000D01*
X147480000Y-109982000D02*
X145923000Y-109982000D01*
X146304000Y-115189000D02*
X146304000Y-115771000D01*
X145542000Y-114427000D02*
X146304000Y-115189000D01*
X145542000Y-110363000D02*
X145542000Y-114427000D01*
X145923000Y-109982000D02*
X145542000Y-110363000D01*
X147480000Y-109982000D02*
X153035000Y-109982000D01*
X154686000Y-108331000D02*
X154686000Y-104521000D01*
X153035000Y-109982000D02*
X154686000Y-108331000D01*
X143510000Y-115771000D02*
X143510000Y-115443000D01*
X143510000Y-115443000D02*
X144653000Y-114300000D01*
X145542000Y-108712000D02*
X147480000Y-108712000D01*
X144653000Y-109601000D02*
X145542000Y-108712000D01*
X144653000Y-114300000D02*
X144653000Y-109601000D01*
X143510000Y-115771000D02*
X143510000Y-115697000D01*
X147480000Y-108712000D02*
X150495000Y-108712000D01*
X151130000Y-108077000D02*
X151130000Y-104521000D01*
X150495000Y-108712000D02*
X151130000Y-108077000D01*
X164306000Y-85793000D02*
X164306000Y-83217000D01*
X174498000Y-79121000D02*
X174498000Y-75565000D01*
X171450000Y-82169000D02*
X174498000Y-79121000D01*
X165354000Y-82169000D02*
X171450000Y-82169000D01*
X164306000Y-83217000D02*
X165354000Y-82169000D01*
X163506000Y-85793000D02*
X163506000Y-83001000D01*
X171958000Y-79121000D02*
X171958000Y-75565000D01*
X169672000Y-81407000D02*
X171958000Y-79121000D01*
X165100000Y-81407000D02*
X169672000Y-81407000D01*
X163506000Y-83001000D02*
X165100000Y-81407000D01*
X162706000Y-89643000D02*
X162706000Y-85793000D01*
X162687000Y-89662000D02*
X162706000Y-89643000D01*
X162706000Y-85793000D02*
X162706000Y-82785000D01*
X169418000Y-79121000D02*
X169418000Y-75565000D01*
X167894000Y-80645000D02*
X169418000Y-79121000D01*
X164846000Y-80645000D02*
X167894000Y-80645000D01*
X162706000Y-82785000D02*
X164846000Y-80645000D01*
D36*
X162706000Y-85793000D02*
X162560000Y-85647000D01*
D35*
X161906000Y-85793000D02*
X161906000Y-82569000D01*
X166878000Y-79121000D02*
X166878000Y-75565000D01*
X166370000Y-79629000D02*
X166878000Y-79121000D01*
X164846000Y-79629000D02*
X166370000Y-79629000D01*
X161906000Y-82569000D02*
X164846000Y-79629000D01*
X161106000Y-85793000D02*
X161106000Y-82353000D01*
X164338000Y-79121000D02*
X164338000Y-75565000D01*
X161106000Y-82353000D02*
X164338000Y-79121000D01*
X158056000Y-88843000D02*
X155264000Y-88843000D01*
X161798000Y-79121000D02*
X161798000Y-75565000D01*
X160528000Y-80391000D02*
X161798000Y-79121000D01*
X156210000Y-80391000D02*
X160528000Y-80391000D01*
X154178000Y-82423000D02*
X156210000Y-80391000D01*
X154178000Y-87757000D02*
X154178000Y-82423000D01*
X155264000Y-88843000D02*
X154178000Y-87757000D01*
X158056000Y-89643000D02*
X155048000Y-89643000D01*
X159258000Y-79121000D02*
X159258000Y-75565000D01*
X159004000Y-79375000D02*
X159258000Y-79121000D01*
X156210000Y-79375000D02*
X159004000Y-79375000D01*
X153162000Y-82423000D02*
X156210000Y-79375000D01*
X153162000Y-87757000D02*
X153162000Y-82423000D01*
X155048000Y-89643000D02*
X153162000Y-87757000D01*
X158056000Y-90443000D02*
X154832000Y-90443000D01*
X156718000Y-77851000D02*
X156718000Y-75565000D01*
X155448000Y-79121000D02*
X156718000Y-77851000D01*
X152146000Y-82423000D02*
X155448000Y-79121000D01*
X152146000Y-87757000D02*
X152146000Y-82423000D01*
X154832000Y-90443000D02*
X152146000Y-87757000D01*
X158056000Y-91243000D02*
X154616000Y-91243000D01*
X154616000Y-91243000D02*
X151130000Y-87757000D01*
X151130000Y-87757000D02*
X151130000Y-82423000D01*
X151130000Y-82423000D02*
X152654000Y-80899000D01*
X152654000Y-80899000D02*
X152654000Y-75565000D01*
X158056000Y-92043000D02*
X154400000Y-92043000D01*
X154400000Y-92043000D02*
X150114000Y-87757000D01*
X150114000Y-87757000D02*
X150114000Y-75565000D01*
X158056000Y-92843000D02*
X154184000Y-92843000D01*
X154184000Y-92843000D02*
X149098000Y-87757000D01*
X149098000Y-87757000D02*
X149098000Y-82423000D01*
X149098000Y-82423000D02*
X147574000Y-80899000D01*
X147574000Y-80899000D02*
X147574000Y-75565000D01*
X130876000Y-88265000D02*
X130876000Y-83378000D01*
X130876000Y-83378000D02*
X130810000Y-83312000D01*
X132776000Y-102235000D02*
X132776000Y-98463140D01*
X132776000Y-98463140D02*
X132737860Y-98425000D01*
X132737860Y-91567000D02*
X132737860Y-88303140D01*
X132737860Y-88303140D02*
X132776000Y-88265000D01*
X142080000Y-109982000D02*
X140843000Y-109982000D01*
X137160000Y-106299000D02*
X126934000Y-106299000D01*
X140843000Y-109982000D02*
X137160000Y-106299000D01*
M02*
