G04 #@! TF.FileFunction,Copper,L2,Bot,Signal*
%FSLAX46Y46*%
G04 Gerber Fmt 4.6, Leading zero omitted, Abs format (unit mm)*
G04 Created by KiCad (PCBNEW 4.0.3-stable) date 08/15/16 11:45:07*
%MOMM*%
%LPD*%
G01*
G04 APERTURE LIST*
%ADD10C,0.100000*%
%ADD11C,4.064000*%
%ADD12O,1.727200X2.032000*%
%ADD13R,5.100320X2.499360*%
%ADD14C,10.200640*%
%ADD15R,2.032000X2.032000*%
%ADD16O,2.032000X2.032000*%
%ADD17R,1.727200X1.727200*%
%ADD18O,1.727200X1.727200*%
%ADD19C,0.800000*%
%ADD20C,0.400000*%
G04 APERTURE END LIST*
D10*
D11*
X124968000Y-123825000D03*
X177038000Y-118745000D03*
X126238000Y-75565000D03*
X177038000Y-90805000D03*
D12*
X161798000Y-123825000D03*
X164338000Y-123825000D03*
X166878000Y-123825000D03*
X169418000Y-123825000D03*
X171958000Y-123825000D03*
X174498000Y-123825000D03*
D13*
X174398940Y-112171480D03*
D14*
X174498000Y-104521000D03*
D13*
X174398940Y-96870520D03*
D12*
X152654000Y-75565000D03*
X150114000Y-75565000D03*
X147574000Y-75565000D03*
X145034000Y-75565000D03*
X142494000Y-75565000D03*
X139954000Y-75565000D03*
X137414000Y-75565000D03*
X134874000Y-75565000D03*
X132334000Y-75565000D03*
X129794000Y-75565000D03*
X174498000Y-75565000D03*
X171958000Y-75565000D03*
X169418000Y-75565000D03*
X166878000Y-75565000D03*
X164338000Y-75565000D03*
X161798000Y-75565000D03*
X159258000Y-75565000D03*
X156718000Y-75565000D03*
D15*
X131318000Y-108839000D03*
D16*
X133858000Y-108839000D03*
D15*
X131318000Y-112649000D03*
D16*
X133858000Y-112649000D03*
D15*
X130810000Y-83312000D03*
D16*
X128270000Y-83312000D03*
D15*
X151130000Y-104521000D03*
D16*
X151130000Y-101981000D03*
D15*
X154686000Y-104521000D03*
D16*
X154686000Y-101981000D03*
D12*
X138938000Y-123825000D03*
X141478000Y-123825000D03*
X144018000Y-123825000D03*
X146558000Y-123825000D03*
X149098000Y-123825000D03*
X151638000Y-123825000D03*
X154178000Y-123825000D03*
X156718000Y-123825000D03*
D17*
X117602000Y-90805000D03*
D18*
X115062000Y-90805000D03*
X117602000Y-88265000D03*
X115062000Y-88265000D03*
X117602000Y-85725000D03*
X115062000Y-85725000D03*
D19*
X136017000Y-82550000D03*
X124206000Y-78613000D03*
X156464000Y-85725000D03*
X144780000Y-85471000D03*
X157480000Y-113411000D03*
X161798000Y-98425000D03*
X122682000Y-106299000D03*
X171958000Y-92837000D03*
X176276000Y-79375000D03*
X171704000Y-90551000D03*
X157480000Y-111379000D03*
X144780000Y-86741000D03*
X155956000Y-86741000D03*
X165100000Y-88519000D03*
X125095000Y-100584000D03*
X145796000Y-96647000D03*
X155956000Y-88011000D03*
X162687000Y-89662000D03*
D20*
X133604000Y-82550000D02*
X136017000Y-82550000D01*
X130429000Y-79375000D02*
X133604000Y-82550000D01*
X124968000Y-79375000D02*
X130429000Y-79375000D01*
X124206000Y-78613000D02*
X124968000Y-79375000D01*
X145034000Y-85725000D02*
X156464000Y-85725000D01*
X144780000Y-85471000D02*
X145034000Y-85725000D01*
X174498000Y-104521000D02*
X166370000Y-104521000D01*
X166370000Y-104521000D02*
X157480000Y-113411000D01*
X151638000Y-123825000D02*
X154178000Y-123825000D01*
X151638000Y-123825000D02*
X151638000Y-125603000D01*
X112776000Y-85725000D02*
X115062000Y-85725000D01*
X111760000Y-86741000D02*
X112776000Y-85725000D01*
X111760000Y-119507000D02*
X111760000Y-86741000D01*
X112268000Y-120015000D02*
X111760000Y-119507000D01*
X125984000Y-120015000D02*
X112268000Y-120015000D01*
X131826000Y-125857000D02*
X125984000Y-120015000D01*
X151384000Y-125857000D02*
X131826000Y-125857000D01*
X151638000Y-125603000D02*
X151384000Y-125857000D01*
X146558000Y-123825000D02*
X146558000Y-102997000D01*
X162052000Y-98425000D02*
X161798000Y-98425000D01*
X151130000Y-98425000D02*
X162052000Y-98425000D01*
X146558000Y-102997000D02*
X151130000Y-98425000D01*
X146558000Y-123825000D02*
X146558000Y-121539000D01*
X122682000Y-109347000D02*
X122682000Y-106299000D01*
X134112000Y-120777000D02*
X122682000Y-109347000D01*
X145796000Y-120777000D02*
X134112000Y-120777000D01*
X146558000Y-121539000D02*
X145796000Y-120777000D01*
X154686000Y-101981000D02*
X162814000Y-101981000D01*
X162814000Y-101981000D02*
X171958000Y-92837000D01*
X173482000Y-91313000D02*
X171958000Y-92837000D01*
X173482000Y-88265000D02*
X173482000Y-91313000D01*
X176276000Y-85471000D02*
X173482000Y-88265000D01*
X176276000Y-79375000D02*
X176276000Y-85471000D01*
X151130000Y-101981000D02*
X151130000Y-100203000D01*
X151130000Y-100203000D02*
X151892000Y-99441000D01*
X151892000Y-99441000D02*
X162814000Y-99441000D01*
X162814000Y-99441000D02*
X171704000Y-90551000D01*
X129794000Y-75565000D02*
X129794000Y-74295000D01*
X129794000Y-74295000D02*
X130302000Y-73787000D01*
X130302000Y-73787000D02*
X154178000Y-73787000D01*
X154178000Y-73787000D02*
X154686000Y-74295000D01*
X154686000Y-74295000D02*
X154686000Y-83439000D01*
X154686000Y-83439000D02*
X155448000Y-84201000D01*
X155448000Y-84201000D02*
X170434000Y-84201000D01*
X170434000Y-84201000D02*
X171704000Y-85471000D01*
X171704000Y-85471000D02*
X171704000Y-90551000D01*
X174398940Y-96870520D02*
X169702480Y-96870520D01*
X157480000Y-109093000D02*
X157480000Y-111379000D01*
X169702480Y-96870520D02*
X157480000Y-109093000D01*
X174398940Y-96870520D02*
X171988480Y-96870520D01*
X155956000Y-86741000D02*
X144780000Y-86741000D01*
X125095000Y-100584000D02*
X145542000Y-100584000D01*
X157607000Y-88519000D02*
X165100000Y-88519000D01*
X145542000Y-100584000D02*
X157607000Y-88519000D01*
X127889000Y-109220000D02*
X131318000Y-112649000D01*
X127889000Y-103378000D02*
X127889000Y-109220000D01*
X125095000Y-100584000D02*
X127889000Y-103378000D01*
X147320000Y-96647000D02*
X145796000Y-96647000D01*
X155956000Y-88011000D02*
X147320000Y-96647000D01*
X117602000Y-90805000D02*
X135128000Y-90805000D01*
X142494000Y-83439000D02*
X142494000Y-75565000D01*
X135128000Y-90805000D02*
X142494000Y-83439000D01*
X128270000Y-83312000D02*
X128270000Y-88265000D01*
X117602000Y-88265000D02*
X128270000Y-88265000D01*
X128270000Y-88265000D02*
X135128000Y-88265000D01*
X139954000Y-83439000D02*
X139954000Y-75565000D01*
X135128000Y-88265000D02*
X139954000Y-83439000D01*
X145034000Y-75565000D02*
X145034000Y-83439000D01*
X113792000Y-88265000D02*
X115062000Y-88265000D01*
X112776000Y-89281000D02*
X113792000Y-88265000D01*
X112776000Y-92583000D02*
X112776000Y-89281000D01*
X113538000Y-93345000D02*
X112776000Y-92583000D01*
X135128000Y-93345000D02*
X113538000Y-93345000D01*
X145034000Y-83439000D02*
X135128000Y-93345000D01*
X131318000Y-108839000D02*
X131318000Y-106426000D01*
X158750000Y-89662000D02*
X162687000Y-89662000D01*
X144526000Y-103886000D02*
X158750000Y-89662000D01*
X133858000Y-103886000D02*
X144526000Y-103886000D01*
X131318000Y-106426000D02*
X133858000Y-103886000D01*
M02*
