G04 #@! TF.FileFunction,Copper,L1,Top,Signal*
%FSLAX46Y46*%
G04 Gerber Fmt 4.6, Leading zero omitted, Abs format (unit mm)*
G04 Created by KiCad (PCBNEW 4.0.2-stable) date 12.12.2016 10:39:44*
%MOMM*%
G01*
G04 APERTURE LIST*
%ADD10C,0.100000*%
%ADD11C,0.250000*%
%ADD12O,1.727200X2.032000*%
%ADD13R,2.032000X2.032000*%
%ADD14O,2.032000X2.032000*%
%ADD15C,4.064000*%
%ADD16R,1.250000X1.000000*%
%ADD17R,2.999740X1.600200*%
%ADD18R,1.000000X1.250000*%
%ADD19R,2.032000X3.657600*%
%ADD20R,2.032000X1.016000*%
%ADD21R,1.597660X1.800860*%
%ADD22R,0.800000X0.600000*%
%ADD23R,0.700000X0.600000*%
%ADD24R,0.700000X1.300000*%
%ADD25R,1.700000X0.900000*%
%ADD26R,1.550000X1.300000*%
%ADD27R,2.100580X5.600700*%
%ADD28R,1.727200X1.727200*%
%ADD29O,1.727200X1.727200*%
%ADD30R,2.301240X0.500380*%
%ADD31R,2.499360X1.998980*%
%ADD32R,1.600000X0.550000*%
%ADD33R,0.550000X1.600000*%
%ADD34R,1.500000X0.600000*%
%ADD35C,0.800000*%
%ADD36C,0.400000*%
G04 APERTURE END LIST*
D10*
D11*
X175940857Y-110586428D02*
X175940857Y-109900714D01*
X177140857Y-110243571D02*
X175940857Y-110243571D01*
X177140857Y-109500714D02*
X175940857Y-109500714D01*
X177140857Y-108986428D02*
X176512286Y-108986428D01*
X176398000Y-109043571D01*
X176340857Y-109157857D01*
X176340857Y-109329285D01*
X176398000Y-109443571D01*
X176455143Y-109500714D01*
X177083714Y-107957857D02*
X177140857Y-108072143D01*
X177140857Y-108300714D01*
X177083714Y-108415000D01*
X176969429Y-108472143D01*
X176512286Y-108472143D01*
X176398000Y-108415000D01*
X176340857Y-108300714D01*
X176340857Y-108072143D01*
X176398000Y-107957857D01*
X176512286Y-107900714D01*
X176626571Y-107900714D01*
X176740857Y-108472143D01*
X177083714Y-106929286D02*
X177140857Y-107043572D01*
X177140857Y-107272143D01*
X177083714Y-107386429D01*
X176969429Y-107443572D01*
X176512286Y-107443572D01*
X176398000Y-107386429D01*
X176340857Y-107272143D01*
X176340857Y-107043572D01*
X176398000Y-106929286D01*
X176512286Y-106872143D01*
X176626571Y-106872143D01*
X176740857Y-107443572D01*
X177140857Y-106357858D02*
X175940857Y-106357858D01*
X175940857Y-106072143D01*
X175998000Y-105900715D01*
X176112286Y-105786429D01*
X176226571Y-105729286D01*
X176455143Y-105672143D01*
X176626571Y-105672143D01*
X176855143Y-105729286D01*
X176969429Y-105786429D01*
X177083714Y-105900715D01*
X177140857Y-106072143D01*
X177140857Y-106357858D01*
X176340857Y-104643572D02*
X177140857Y-104643572D01*
X176340857Y-105157858D02*
X176969429Y-105157858D01*
X177083714Y-105100715D01*
X177140857Y-104986429D01*
X177140857Y-104815001D01*
X177083714Y-104700715D01*
X177026571Y-104643572D01*
X177140857Y-104072144D02*
X176340857Y-104072144D01*
X175940857Y-104072144D02*
X175998000Y-104129287D01*
X176055143Y-104072144D01*
X175998000Y-104015001D01*
X175940857Y-104072144D01*
X176055143Y-104072144D01*
X176340857Y-103500715D02*
X177140857Y-103500715D01*
X176455143Y-103500715D02*
X176398000Y-103443572D01*
X176340857Y-103329286D01*
X176340857Y-103157858D01*
X176398000Y-103043572D01*
X176512286Y-102986429D01*
X177140857Y-102986429D01*
X177140857Y-102243572D02*
X177083714Y-102357858D01*
X177026571Y-102415001D01*
X176912286Y-102472144D01*
X176569429Y-102472144D01*
X176455143Y-102415001D01*
X176398000Y-102357858D01*
X176340857Y-102243572D01*
X176340857Y-102072144D01*
X176398000Y-101957858D01*
X176455143Y-101900715D01*
X176569429Y-101843572D01*
X176912286Y-101843572D01*
X177026571Y-101900715D01*
X177083714Y-101957858D01*
X177140857Y-102072144D01*
X177140857Y-102243572D01*
X176340857Y-100529286D02*
X177140857Y-100243572D01*
X176340857Y-99957858D01*
X175940857Y-99272143D02*
X175940857Y-99157858D01*
X175998000Y-99043572D01*
X176055143Y-98986429D01*
X176169429Y-98929286D01*
X176398000Y-98872143D01*
X176683714Y-98872143D01*
X176912286Y-98929286D01*
X177026571Y-98986429D01*
X177083714Y-99043572D01*
X177140857Y-99157858D01*
X177140857Y-99272143D01*
X177083714Y-99386429D01*
X177026571Y-99443572D01*
X176912286Y-99500715D01*
X176683714Y-99557858D01*
X176398000Y-99557858D01*
X176169429Y-99500715D01*
X176055143Y-99443572D01*
X175998000Y-99386429D01*
X175940857Y-99272143D01*
X177026571Y-98357858D02*
X177083714Y-98300715D01*
X177140857Y-98357858D01*
X177083714Y-98415001D01*
X177026571Y-98357858D01*
X177140857Y-98357858D01*
X176055143Y-97843572D02*
X175998000Y-97786429D01*
X175940857Y-97672143D01*
X175940857Y-97386429D01*
X175998000Y-97272143D01*
X176055143Y-97215000D01*
X176169429Y-97157857D01*
X176283714Y-97157857D01*
X176455143Y-97215000D01*
X177140857Y-97900714D01*
X177140857Y-97157857D01*
D12*
X174498000Y-75565000D03*
X171958000Y-75565000D03*
X169418000Y-75565000D03*
X166878000Y-75565000D03*
X164338000Y-75565000D03*
X161798000Y-75565000D03*
X159258000Y-75565000D03*
X156718000Y-75565000D03*
D13*
X156398000Y-115365000D03*
D14*
X156398000Y-117905000D03*
D15*
X124968000Y-123825000D03*
X177038000Y-118745000D03*
X126238000Y-75565000D03*
X177038000Y-90805000D03*
D12*
X161798000Y-123825000D03*
X164338000Y-123825000D03*
X166878000Y-123825000D03*
X169418000Y-123825000D03*
X171958000Y-123825000D03*
X174498000Y-123825000D03*
D16*
X122936000Y-113395000D03*
X122936000Y-111395000D03*
D17*
X117769640Y-98171000D03*
X113370360Y-98171000D03*
D16*
X151598000Y-107965000D03*
X151598000Y-109965000D03*
X137414000Y-87519000D03*
X137414000Y-89519000D03*
D18*
X113046000Y-82169000D03*
X115046000Y-82169000D03*
D16*
X137414000Y-95615000D03*
X137414000Y-93615000D03*
X166398000Y-92965000D03*
X166398000Y-94965000D03*
D18*
X134890000Y-79375000D03*
X136890000Y-79375000D03*
D19*
X112522000Y-106299000D03*
D20*
X119126000Y-106299000D03*
X119126000Y-104013000D03*
X119126000Y-108585000D03*
D12*
X152654000Y-75565000D03*
X150114000Y-75565000D03*
X147574000Y-75565000D03*
X145034000Y-75565000D03*
X142494000Y-75565000D03*
X139954000Y-75565000D03*
X137414000Y-75565000D03*
X134874000Y-75565000D03*
X132334000Y-75565000D03*
X129794000Y-75565000D03*
D13*
X131318000Y-108839000D03*
D14*
X133858000Y-108839000D03*
D13*
X131318000Y-112649000D03*
D14*
X133858000Y-112649000D03*
D13*
X130810000Y-83312000D03*
D14*
X128270000Y-83312000D03*
D13*
X152998000Y-115365000D03*
D14*
X152998000Y-117905000D03*
D21*
X132737860Y-98425000D03*
X129898140Y-98425000D03*
X132737860Y-91567000D03*
X129898140Y-91567000D03*
D22*
X122998000Y-115510000D03*
D23*
X122998000Y-117620000D03*
D24*
X130876000Y-102235000D03*
X132776000Y-102235000D03*
X130876000Y-88265000D03*
X132776000Y-88265000D03*
D25*
X140716000Y-118671000D03*
X140716000Y-115771000D03*
X137922000Y-118671000D03*
X137922000Y-115771000D03*
X144598000Y-115715000D03*
X144598000Y-118615000D03*
X147598000Y-115715000D03*
X147598000Y-118615000D03*
X121412000Y-85397000D03*
X121412000Y-82497000D03*
D26*
X113373000Y-74331000D03*
X121323000Y-74331000D03*
X113373000Y-78831000D03*
X121323000Y-78831000D03*
D27*
X141478000Y-86972140D03*
X141478000Y-96669860D03*
D12*
X138938000Y-123825000D03*
X141478000Y-123825000D03*
X144018000Y-123825000D03*
X146558000Y-123825000D03*
X149098000Y-123825000D03*
X151638000Y-123825000D03*
X154178000Y-123825000D03*
X156718000Y-123825000D03*
D28*
X117602000Y-90805000D03*
D29*
X115062000Y-90805000D03*
X117602000Y-88265000D03*
X115062000Y-88265000D03*
X117602000Y-85725000D03*
X115062000Y-85725000D03*
D30*
X119019320Y-117652800D03*
X119019320Y-118452900D03*
X119019320Y-119253000D03*
X119019320Y-120053100D03*
X119019320Y-120853200D03*
D31*
X118920260Y-114802920D03*
X113421160Y-114802920D03*
X118920260Y-123703080D03*
X113421160Y-123703080D03*
D24*
X125034000Y-106299000D03*
X126934000Y-106299000D03*
D32*
X163448000Y-98165000D03*
X163448000Y-97365000D03*
X163448000Y-96565000D03*
X163448000Y-95765000D03*
X163448000Y-94965000D03*
X163448000Y-94165000D03*
X163448000Y-93365000D03*
X163448000Y-92565000D03*
D33*
X161998000Y-91115000D03*
X161198000Y-91115000D03*
X160398000Y-91115000D03*
X159598000Y-91115000D03*
X158798000Y-91115000D03*
X157998000Y-91115000D03*
X157198000Y-91115000D03*
X156398000Y-91115000D03*
D32*
X154948000Y-92565000D03*
X154948000Y-93365000D03*
X154948000Y-94165000D03*
X154948000Y-94965000D03*
X154948000Y-95765000D03*
X154948000Y-96565000D03*
X154948000Y-97365000D03*
X154948000Y-98165000D03*
D33*
X156398000Y-99615000D03*
X157198000Y-99615000D03*
X157998000Y-99615000D03*
X158798000Y-99615000D03*
X159598000Y-99615000D03*
X160398000Y-99615000D03*
X161198000Y-99615000D03*
X161998000Y-99615000D03*
D34*
X138948000Y-103320000D03*
X138948000Y-104590000D03*
X138948000Y-105860000D03*
X138948000Y-107130000D03*
X138948000Y-108400000D03*
X138948000Y-109670000D03*
X138948000Y-110940000D03*
X138948000Y-112210000D03*
X148248000Y-112210000D03*
X148248000Y-110940000D03*
X148248000Y-109670000D03*
X148248000Y-108400000D03*
X148248000Y-107130000D03*
X148248000Y-105860000D03*
X148248000Y-104590000D03*
X148248000Y-103320000D03*
D35*
X149398000Y-99165000D03*
X151598000Y-112165000D03*
X122682000Y-106299000D03*
X176198000Y-79765000D03*
X151598000Y-105965000D03*
X146998000Y-86965000D03*
X158398000Y-93165000D03*
X157598000Y-97565000D03*
X125095000Y-100584000D03*
X160198000Y-94165000D03*
X146998000Y-96765000D03*
X151698000Y-95165000D03*
X146998000Y-94265000D03*
X138998000Y-81365000D03*
D36*
X122998000Y-115510000D02*
X125945000Y-115510000D01*
X125945000Y-115510000D02*
X125945000Y-115658000D01*
X122998000Y-115510000D02*
X122998000Y-113457000D01*
X122998000Y-113457000D02*
X122936000Y-113395000D01*
X119126000Y-104013000D02*
X125945000Y-104013000D01*
X125945000Y-115658000D02*
X125945000Y-104013000D01*
X125945000Y-104013000D02*
X125945000Y-103544000D01*
X125945000Y-103544000D02*
X125984000Y-103505000D01*
X127254000Y-102235000D02*
X130876000Y-102235000D01*
X125984000Y-103505000D02*
X127254000Y-102235000D01*
X149098000Y-123825000D02*
X149098000Y-125349000D01*
X149098000Y-125349000D02*
X148590000Y-125857000D01*
X148590000Y-125857000D02*
X136144000Y-125857000D01*
X136144000Y-125857000D02*
X125945000Y-115658000D01*
X115046000Y-82169000D02*
X116444000Y-82169000D01*
X117408000Y-81205000D02*
X117408000Y-74331000D01*
X116444000Y-82169000D02*
X117408000Y-81205000D01*
X154948000Y-95765000D02*
X152798000Y-95765000D01*
X152798000Y-95765000D02*
X149398000Y-99165000D01*
X121323000Y-74331000D02*
X121323000Y-75690000D01*
X131398000Y-79565000D02*
X135200000Y-83367000D01*
X125198000Y-79565000D02*
X131398000Y-79565000D01*
X121323000Y-75690000D02*
X125198000Y-79565000D01*
X151598000Y-109965000D02*
X151598000Y-112165000D01*
X148248000Y-107130000D02*
X149563000Y-107130000D01*
X150398000Y-109965000D02*
X151598000Y-109965000D01*
X149798000Y-109365000D02*
X150398000Y-109965000D01*
X149798000Y-107365000D02*
X149798000Y-109365000D01*
X149563000Y-107130000D02*
X149798000Y-107365000D01*
X163448000Y-96565000D02*
X157998000Y-96565000D01*
X157998000Y-96565000D02*
X157198000Y-95765000D01*
X157198000Y-95765000D02*
X154948000Y-95765000D01*
X163448000Y-94965000D02*
X166398000Y-94965000D01*
X163448000Y-96565000D02*
X165998000Y-96565000D01*
X166398000Y-96165000D02*
X166398000Y-94965000D01*
X165998000Y-96565000D02*
X166398000Y-96165000D01*
X129898140Y-95123000D02*
X133350000Y-95123000D01*
X134858000Y-93615000D02*
X137414000Y-93615000D01*
X133350000Y-95123000D02*
X134858000Y-93615000D01*
X129898140Y-98425000D02*
X129898140Y-95123000D01*
X129898140Y-95123000D02*
X129898140Y-91567000D01*
X113373000Y-74331000D02*
X117408000Y-74331000D01*
X117408000Y-74331000D02*
X121323000Y-74331000D01*
X115046000Y-82169000D02*
X115062000Y-82169000D01*
X137414000Y-89519000D02*
X136128000Y-89519000D01*
X136128000Y-89519000D02*
X135128000Y-88519000D01*
X135128000Y-88519000D02*
X135128000Y-83693000D01*
X135128000Y-83693000D02*
X135128000Y-83439000D01*
X135128000Y-83439000D02*
X135200000Y-83367000D01*
X135890000Y-82677000D02*
X136017000Y-82550000D01*
X135200000Y-83367000D02*
X135890000Y-82677000D01*
X136017000Y-82550000D02*
X136890000Y-81677000D01*
X136890000Y-81677000D02*
X136890000Y-79375000D01*
X119126000Y-108585000D02*
X115824000Y-108585000D01*
X113370360Y-100543360D02*
X113370360Y-98171000D01*
X114808000Y-101981000D02*
X113370360Y-100543360D01*
X114808000Y-107569000D02*
X114808000Y-101981000D01*
X115824000Y-108585000D02*
X114808000Y-107569000D01*
X113370360Y-98171000D02*
X113370360Y-95463360D01*
X112776000Y-85725000D02*
X115062000Y-85725000D01*
X111760000Y-86741000D02*
X112776000Y-85725000D01*
X111760000Y-93853000D02*
X111760000Y-86741000D01*
X113370360Y-95463360D02*
X111760000Y-93853000D01*
X115062000Y-85725000D02*
X115062000Y-82185000D01*
X115062000Y-82185000D02*
X115046000Y-82169000D01*
X122936000Y-111395000D02*
X122936000Y-109093000D01*
X122428000Y-108585000D02*
X119126000Y-108585000D01*
X122936000Y-109093000D02*
X122428000Y-108585000D01*
X118920260Y-114802920D02*
X118920260Y-108790740D01*
X118920260Y-108790740D02*
X119126000Y-108585000D01*
X119019320Y-120853200D02*
X119019320Y-123604020D01*
X119019320Y-123604020D02*
X118920260Y-123703080D01*
X151892000Y-123571000D02*
X151638000Y-123825000D01*
X136890000Y-79375000D02*
X136890000Y-78121000D01*
X136890000Y-78121000D02*
X137414000Y-77597000D01*
X137414000Y-77597000D02*
X137414000Y-75565000D01*
X137414000Y-93615000D02*
X137414000Y-91565000D01*
X137414000Y-91565000D02*
X137414000Y-89519000D01*
X121412000Y-85397000D02*
X121412000Y-92911000D01*
X121412000Y-92911000D02*
X117766000Y-96557000D01*
X142598000Y-118615000D02*
X142598000Y-114565000D01*
X151198000Y-93365000D02*
X154948000Y-93365000D01*
X150398000Y-94165000D02*
X151198000Y-93365000D01*
X150398000Y-95765000D02*
X150398000Y-94165000D01*
X143198000Y-102965000D02*
X150398000Y-95765000D01*
X143198000Y-113965000D02*
X143198000Y-102965000D01*
X142598000Y-114565000D02*
X143198000Y-113965000D01*
X146558000Y-123825000D02*
X146558000Y-118615000D01*
X137922000Y-118671000D02*
X140716000Y-118671000D01*
X140716000Y-118671000D02*
X140772000Y-118615000D01*
X140772000Y-118615000D02*
X142598000Y-118615000D01*
X142598000Y-118615000D02*
X146558000Y-118615000D01*
X146558000Y-118615000D02*
X147598000Y-118615000D01*
X163448000Y-95765000D02*
X161398000Y-95765000D01*
X161398000Y-95765000D02*
X160798000Y-95165000D01*
X163448000Y-94165000D02*
X164798000Y-94165000D01*
X165398000Y-92965000D02*
X166398000Y-92965000D01*
X164998000Y-93365000D02*
X165398000Y-92965000D01*
X164998000Y-93965000D02*
X164998000Y-93365000D01*
X164798000Y-94165000D02*
X164998000Y-93965000D01*
X163448000Y-94165000D02*
X161798000Y-94165000D01*
X156798000Y-93365000D02*
X154948000Y-93365000D01*
X158598000Y-95165000D02*
X156798000Y-93365000D01*
X160798000Y-95165000D02*
X158598000Y-95165000D01*
X161798000Y-94165000D02*
X160798000Y-95165000D01*
X119126000Y-106299000D02*
X122428000Y-106299000D01*
X122428000Y-106299000D02*
X122682000Y-106299000D01*
X122682000Y-106299000D02*
X125034000Y-106299000D01*
X115062000Y-93853000D02*
X115062000Y-90805000D01*
X117769640Y-96560640D02*
X117766000Y-96557000D01*
X117766000Y-96557000D02*
X115062000Y-93853000D01*
X146304000Y-123571000D02*
X146558000Y-123825000D01*
X117769640Y-98171000D02*
X117769640Y-96560640D01*
X117769640Y-98171000D02*
X117769640Y-100797360D01*
X117602000Y-106299000D02*
X119126000Y-106299000D01*
X116586000Y-105283000D02*
X117602000Y-106299000D01*
X116586000Y-101981000D02*
X116586000Y-105283000D01*
X117769640Y-100797360D02*
X116586000Y-101981000D01*
X161798000Y-123825000D02*
X161798000Y-120965000D01*
X152998000Y-97365000D02*
X154948000Y-97365000D01*
X152398000Y-97965000D02*
X152998000Y-97365000D01*
X152398000Y-102365000D02*
X152398000Y-97965000D01*
X154598000Y-104565000D02*
X152398000Y-102365000D01*
X154598000Y-108765000D02*
X154598000Y-104565000D01*
X158598000Y-112765000D02*
X154598000Y-108765000D01*
X158598000Y-117765000D02*
X158598000Y-112765000D01*
X161798000Y-120965000D02*
X158598000Y-117765000D01*
X164338000Y-123825000D02*
X164338000Y-120905000D01*
X154948000Y-101115000D02*
X154948000Y-98165000D01*
X155398000Y-101565000D02*
X154948000Y-101115000D01*
X155398000Y-108365000D02*
X155398000Y-101565000D01*
X157598000Y-110565000D02*
X155398000Y-108365000D01*
X159398000Y-112365000D02*
X157598000Y-110565000D01*
X159398000Y-117365000D02*
X159398000Y-112365000D01*
X162198000Y-120165000D02*
X159398000Y-117365000D01*
X163598000Y-120165000D02*
X162198000Y-120165000D01*
X164338000Y-120905000D02*
X163598000Y-120165000D01*
X166878000Y-123825000D02*
X166878000Y-121045000D01*
X156398000Y-108165000D02*
X156398000Y-99615000D01*
X160198000Y-111965000D02*
X156398000Y-108165000D01*
X160198000Y-116965000D02*
X160198000Y-111965000D01*
X162598000Y-119365000D02*
X160198000Y-116965000D01*
X164198000Y-119365000D02*
X162598000Y-119365000D01*
X164798000Y-119965000D02*
X164198000Y-119365000D01*
X165798000Y-119965000D02*
X164798000Y-119965000D01*
X166878000Y-121045000D02*
X165798000Y-119965000D01*
X169418000Y-123825000D02*
X169418000Y-120985000D01*
X157198000Y-107765000D02*
X157198000Y-99615000D01*
X160998000Y-111565000D02*
X157198000Y-107765000D01*
X160998000Y-116565000D02*
X160998000Y-111565000D01*
X162998000Y-118565000D02*
X160998000Y-116565000D01*
X164598000Y-118565000D02*
X162998000Y-118565000D01*
X165198000Y-119165000D02*
X164598000Y-118565000D01*
X166198000Y-119165000D02*
X165198000Y-119165000D01*
X167398000Y-120365000D02*
X166198000Y-119165000D01*
X168798000Y-120365000D02*
X167398000Y-120365000D01*
X169418000Y-120985000D02*
X168798000Y-120365000D01*
X171958000Y-123825000D02*
X171958000Y-125125000D01*
X175598000Y-79765000D02*
X176198000Y-79765000D01*
X169798000Y-85565000D02*
X175598000Y-79765000D01*
X169798000Y-85965000D02*
X169798000Y-85565000D01*
X173198000Y-89365000D02*
X169798000Y-85965000D01*
X173198000Y-99765000D02*
X173198000Y-89365000D01*
X174198000Y-100765000D02*
X173198000Y-99765000D01*
X174198000Y-119965000D02*
X174198000Y-100765000D01*
X176398000Y-122165000D02*
X174198000Y-119965000D01*
X176398000Y-125365000D02*
X176398000Y-122165000D01*
X175998000Y-125765000D02*
X176398000Y-125365000D01*
X172598000Y-125765000D02*
X175998000Y-125765000D01*
X171958000Y-125125000D02*
X172598000Y-125765000D01*
X171958000Y-123825000D02*
X171958000Y-120925000D01*
X171958000Y-120925000D02*
X170598000Y-119565000D01*
X170598000Y-119565000D02*
X167798000Y-119565000D01*
X167798000Y-119565000D02*
X166598000Y-118365000D01*
X166598000Y-118365000D02*
X165598000Y-118365000D01*
X165598000Y-118365000D02*
X164998000Y-117765000D01*
X164998000Y-117765000D02*
X163398000Y-117765000D01*
X163398000Y-117765000D02*
X161798000Y-116165000D01*
X161798000Y-116165000D02*
X161798000Y-111165000D01*
X161798000Y-111165000D02*
X157998000Y-107365000D01*
X157998000Y-107365000D02*
X157998000Y-99615000D01*
X174498000Y-123825000D02*
X174498000Y-121465000D01*
X158798000Y-106965000D02*
X158798000Y-99615000D01*
X159798000Y-107965000D02*
X158798000Y-106965000D01*
X162598000Y-110765000D02*
X159798000Y-107965000D01*
X162598000Y-115765000D02*
X162598000Y-110765000D01*
X163798000Y-116965000D02*
X162598000Y-115765000D01*
X165398000Y-116965000D02*
X163798000Y-116965000D01*
X165998000Y-117565000D02*
X165398000Y-116965000D01*
X166998000Y-117565000D02*
X165998000Y-117565000D01*
X168198000Y-118765000D02*
X166998000Y-117565000D01*
X171798000Y-118765000D02*
X168198000Y-118765000D01*
X174498000Y-121465000D02*
X171798000Y-118765000D01*
X129794000Y-75565000D02*
X129794000Y-74169000D01*
X129794000Y-74169000D02*
X130398000Y-73565000D01*
X130398000Y-73565000D02*
X174798000Y-73565000D01*
X174798000Y-73565000D02*
X176198000Y-74965000D01*
X176198000Y-74965000D02*
X176198000Y-77765000D01*
X176198000Y-77765000D02*
X168598000Y-85365000D01*
X168598000Y-85365000D02*
X168598000Y-85965000D01*
X168598000Y-85965000D02*
X172198000Y-89565000D01*
X172198000Y-89565000D02*
X172198000Y-99765000D01*
X172198000Y-99765000D02*
X168998000Y-102965000D01*
X168998000Y-102965000D02*
X160398000Y-102965000D01*
X160398000Y-102965000D02*
X158798000Y-101365000D01*
X158798000Y-101365000D02*
X158798000Y-99615000D01*
X151598000Y-105965000D02*
X151598000Y-107965000D01*
X148248000Y-105860000D02*
X151493000Y-105860000D01*
X151493000Y-105860000D02*
X151598000Y-105965000D01*
X163448000Y-92565000D02*
X160598000Y-92565000D01*
X146990860Y-86972140D02*
X141478000Y-86972140D01*
X146998000Y-86965000D02*
X146990860Y-86972140D01*
X159998000Y-93165000D02*
X158398000Y-93165000D01*
X160598000Y-92565000D02*
X159998000Y-93165000D01*
X137414000Y-87519000D02*
X140931140Y-87519000D01*
X140931140Y-87519000D02*
X141478000Y-86972140D01*
X159598000Y-99615000D02*
X159598000Y-97965000D01*
X159198000Y-97565000D02*
X157598000Y-97565000D01*
X159598000Y-97965000D02*
X159198000Y-97565000D01*
X125095000Y-82931000D02*
X125095000Y-100584000D01*
X124661000Y-82497000D02*
X125095000Y-82931000D01*
X121412000Y-82497000D02*
X124661000Y-82497000D01*
X144018000Y-123825000D02*
X144018000Y-121539000D01*
X144018000Y-121539000D02*
X143256000Y-120777000D01*
X143256000Y-120777000D02*
X134112000Y-120777000D01*
X134112000Y-120777000D02*
X131318000Y-117983000D01*
X131318000Y-117983000D02*
X131318000Y-112649000D01*
X121412000Y-82497000D02*
X121412000Y-78920000D01*
X121412000Y-78920000D02*
X121323000Y-78831000D01*
X113046000Y-82169000D02*
X113046000Y-79158000D01*
X113046000Y-79158000D02*
X113373000Y-78831000D01*
X117602000Y-85725000D02*
X117602000Y-82931000D01*
X117602000Y-82931000D02*
X118036000Y-82497000D01*
X118036000Y-82497000D02*
X121412000Y-82497000D01*
X141478000Y-96669860D02*
X146902860Y-96669860D01*
X160998000Y-93365000D02*
X163448000Y-93365000D01*
X160198000Y-94165000D02*
X160998000Y-93365000D01*
X146902860Y-96669860D02*
X146998000Y-96765000D01*
X137414000Y-95615000D02*
X140423140Y-95615000D01*
X140423140Y-95615000D02*
X141478000Y-96669860D01*
X151898000Y-94965000D02*
X154948000Y-94965000D01*
X151698000Y-95165000D02*
X151898000Y-94965000D01*
X151198000Y-90065000D02*
X146998000Y-94265000D01*
X151198000Y-88565000D02*
X151198000Y-90065000D01*
X144498000Y-81865000D02*
X151198000Y-88565000D01*
X139498000Y-81865000D02*
X144498000Y-81865000D01*
X138998000Y-81365000D02*
X139498000Y-81865000D01*
X134890000Y-79375000D02*
X134890000Y-75581000D01*
X134890000Y-75581000D02*
X134874000Y-75565000D01*
X119019320Y-117652800D02*
X122965200Y-117652800D01*
X122965200Y-117652800D02*
X122998000Y-117620000D01*
X142494000Y-75565000D02*
X142494000Y-78061000D01*
X156398000Y-89765000D02*
X156398000Y-91115000D01*
X155798000Y-89165000D02*
X156398000Y-89765000D01*
X154198000Y-89165000D02*
X155798000Y-89165000D01*
X143798000Y-78765000D02*
X154198000Y-89165000D01*
X143198000Y-78765000D02*
X143798000Y-78765000D01*
X142494000Y-78061000D02*
X143198000Y-78765000D01*
X154948000Y-92565000D02*
X154948000Y-91115000D01*
X154948000Y-91115000D02*
X143398000Y-79565000D01*
X143398000Y-79565000D02*
X141598000Y-79565000D01*
X141598000Y-79565000D02*
X139954000Y-77921000D01*
X139954000Y-77921000D02*
X139954000Y-75565000D01*
X145034000Y-75565000D02*
X145034000Y-78001000D01*
X157198000Y-89365000D02*
X157198000Y-91115000D01*
X155998000Y-88165000D02*
X157198000Y-89365000D01*
X154398000Y-88165000D02*
X155998000Y-88165000D01*
X145798000Y-79565000D02*
X154398000Y-88165000D01*
X145798000Y-78765000D02*
X145798000Y-79565000D01*
X145034000Y-78001000D02*
X145798000Y-78765000D01*
X144998000Y-75601000D02*
X145034000Y-75565000D01*
X140716000Y-115771000D02*
X140716000Y-114847000D01*
X140893000Y-105860000D02*
X138948000Y-105860000D01*
X141798000Y-106765000D02*
X140893000Y-105860000D01*
X141798000Y-113765000D02*
X141798000Y-106765000D01*
X140716000Y-114847000D02*
X141798000Y-113765000D01*
X138948000Y-105860000D02*
X134903000Y-105860000D01*
X134903000Y-105860000D02*
X133858000Y-106905000D01*
X133858000Y-106905000D02*
X133858000Y-108839000D01*
X140716000Y-115771000D02*
X140792000Y-115771000D01*
X140896000Y-115771000D02*
X140716000Y-115771000D01*
X140716000Y-115771000D02*
X140896000Y-115771000D01*
X137922000Y-115771000D02*
X137922000Y-114241000D01*
X140563000Y-107130000D02*
X138948000Y-107130000D01*
X140798000Y-107365000D02*
X140563000Y-107130000D01*
X140798000Y-113165000D02*
X140798000Y-107365000D01*
X140198000Y-113765000D02*
X140798000Y-113165000D01*
X138398000Y-113765000D02*
X140198000Y-113765000D01*
X137922000Y-114241000D02*
X138398000Y-113765000D01*
X138948000Y-107130000D02*
X137233000Y-107130000D01*
X136314000Y-112649000D02*
X133858000Y-112649000D01*
X136798000Y-112165000D02*
X136314000Y-112649000D01*
X136798000Y-107565000D02*
X136798000Y-112165000D01*
X137233000Y-107130000D02*
X136798000Y-107565000D01*
X164338000Y-75565000D02*
X164338000Y-87705000D01*
X167598000Y-97365000D02*
X163448000Y-97365000D01*
X168198000Y-96765000D02*
X167598000Y-97365000D01*
X168198000Y-91565000D02*
X168198000Y-96765000D01*
X164338000Y-87705000D02*
X168198000Y-91565000D01*
X169418000Y-75565000D02*
X169418000Y-77945000D01*
X169418000Y-77945000D02*
X165998000Y-81365000D01*
X165998000Y-81365000D02*
X165998000Y-86965000D01*
X165998000Y-86965000D02*
X169798000Y-90765000D01*
X169798000Y-90765000D02*
X169798000Y-98365000D01*
X169798000Y-98365000D02*
X168548000Y-99615000D01*
X168548000Y-99615000D02*
X161998000Y-99615000D01*
X156718000Y-75565000D02*
X156718000Y-84685000D01*
X160398000Y-87765000D02*
X160398000Y-91115000D01*
X157598000Y-84965000D02*
X160398000Y-87765000D01*
X156998000Y-84965000D02*
X157598000Y-84965000D01*
X156718000Y-84685000D02*
X156998000Y-84965000D01*
X152654000Y-75565000D02*
X152654000Y-77909000D01*
X159598000Y-88165000D02*
X159598000Y-91115000D01*
X157198000Y-85765000D02*
X159598000Y-88165000D01*
X155598000Y-85765000D02*
X157198000Y-85765000D01*
X150398000Y-80565000D02*
X155598000Y-85765000D01*
X150398000Y-80165000D02*
X150398000Y-80565000D01*
X152654000Y-77909000D02*
X150398000Y-80165000D01*
X150114000Y-75565000D02*
X150114000Y-78049000D01*
X158798000Y-88565000D02*
X158798000Y-91115000D01*
X156798000Y-86565000D02*
X158798000Y-88565000D01*
X155198000Y-86565000D02*
X156798000Y-86565000D01*
X148998000Y-80365000D02*
X155198000Y-86565000D01*
X148998000Y-79165000D02*
X148998000Y-80365000D01*
X150114000Y-78049000D02*
X148998000Y-79165000D01*
X147574000Y-75565000D02*
X147574000Y-77941000D01*
X157998000Y-88965000D02*
X157998000Y-91115000D01*
X156398000Y-87365000D02*
X157998000Y-88965000D01*
X154798000Y-87365000D02*
X156398000Y-87365000D01*
X148198000Y-80765000D02*
X154798000Y-87365000D01*
X148198000Y-78565000D02*
X148198000Y-80765000D01*
X147574000Y-77941000D02*
X148198000Y-78565000D01*
X130876000Y-88265000D02*
X130876000Y-83378000D01*
X130876000Y-83378000D02*
X130810000Y-83312000D01*
X132776000Y-102235000D02*
X132776000Y-98463140D01*
X132776000Y-98463140D02*
X132737860Y-98425000D01*
X132737860Y-91567000D02*
X132737860Y-88303140D01*
X132737860Y-88303140D02*
X132776000Y-88265000D01*
X126934000Y-106299000D02*
X127864000Y-106299000D01*
X129573000Y-104590000D02*
X138948000Y-104590000D01*
X127864000Y-106299000D02*
X129573000Y-104590000D01*
X166878000Y-75565000D02*
X166878000Y-77885000D01*
X168398000Y-98165000D02*
X163448000Y-98165000D01*
X168998000Y-97565000D02*
X168398000Y-98165000D01*
X168998000Y-91165000D02*
X168998000Y-97565000D01*
X165198000Y-87365000D02*
X168998000Y-91165000D01*
X165198000Y-79565000D02*
X165198000Y-87365000D01*
X166878000Y-77885000D02*
X165198000Y-79565000D01*
X161798000Y-75565000D02*
X161798000Y-77965000D01*
X161998000Y-86965000D02*
X161998000Y-91115000D01*
X158398000Y-83365000D02*
X161998000Y-86965000D01*
X158398000Y-81365000D02*
X158398000Y-83365000D01*
X161798000Y-77965000D02*
X158398000Y-81365000D01*
X159258000Y-75565000D02*
X159258000Y-77905000D01*
X161198000Y-87365000D02*
X161198000Y-91115000D01*
X157598000Y-83765000D02*
X161198000Y-87365000D01*
X157598000Y-79565000D02*
X157598000Y-83765000D01*
X159258000Y-77905000D02*
X157598000Y-79565000D01*
X174498000Y-75565000D02*
X174498000Y-78065000D01*
X160398000Y-101765000D02*
X160398000Y-99615000D01*
X160798000Y-102165000D02*
X160398000Y-101765000D01*
X168598000Y-102165000D02*
X160798000Y-102165000D01*
X171398000Y-99365000D02*
X168598000Y-102165000D01*
X171398000Y-95365000D02*
X171398000Y-99365000D01*
X171398000Y-89965000D02*
X171398000Y-95365000D01*
X167598000Y-86165000D02*
X171398000Y-89965000D01*
X167598000Y-84965000D02*
X167598000Y-86165000D01*
X174498000Y-78065000D02*
X167598000Y-84965000D01*
X174198000Y-75865000D02*
X174498000Y-75565000D01*
X171958000Y-75565000D02*
X171958000Y-78005000D01*
X161198000Y-100965000D02*
X161198000Y-99615000D01*
X161598000Y-101365000D02*
X161198000Y-100965000D01*
X168198000Y-101365000D02*
X161598000Y-101365000D01*
X170598000Y-98965000D02*
X168198000Y-101365000D01*
X170598000Y-90365000D02*
X170598000Y-98965000D01*
X166798000Y-86565000D02*
X170598000Y-90365000D01*
X166798000Y-83165000D02*
X166798000Y-86565000D01*
X171958000Y-78005000D02*
X166798000Y-83165000D01*
X144598000Y-115715000D02*
X144598000Y-104165000D01*
X145443000Y-103320000D02*
X148248000Y-103320000D01*
X144598000Y-104165000D02*
X145443000Y-103320000D01*
X156398000Y-115365000D02*
X156398000Y-113965000D01*
X152153000Y-103320000D02*
X153798000Y-104965000D01*
X153798000Y-104965000D02*
X153798000Y-109165000D01*
X153798000Y-109165000D02*
X156398000Y-111765000D01*
X156398000Y-111765000D02*
X156398000Y-113965000D01*
X152153000Y-103320000D02*
X148248000Y-103320000D01*
X148293000Y-103365000D02*
X148248000Y-103320000D01*
X147598000Y-115715000D02*
X147598000Y-114165000D01*
X146173000Y-104590000D02*
X148248000Y-104590000D01*
X145598000Y-105165000D02*
X146173000Y-104590000D01*
X145598000Y-113165000D02*
X145598000Y-105165000D01*
X146198000Y-113765000D02*
X145598000Y-113165000D01*
X147198000Y-113765000D02*
X146198000Y-113765000D01*
X147598000Y-114165000D02*
X147198000Y-113765000D01*
X152998000Y-115365000D02*
X152998000Y-113965000D01*
X152023000Y-104590000D02*
X152998000Y-105565000D01*
X152998000Y-105565000D02*
X152998000Y-113965000D01*
X152023000Y-104590000D02*
X148248000Y-104590000D01*
M02*
