M48
;DRILL file {KiCad 4.0.3-stable} date 08/23/16 13:58:29
;FORMAT={-:-/ absolute / metric / decimal}
FMAT,2
METRIC,TZ
T1C0.600
T2C1.016
T3C3.048
T4C0.899
%
G90
G05
M71
T1
X122.682Y-106.299
X124.206Y-78.613
X125.095Y-100.584
X136.017Y-82.55
X144.78Y-85.471
X144.78Y-86.741
X145.796Y-96.647
X155.956Y-86.741
X155.956Y-88.011
X156.464Y-85.725
X159.004Y-109.601
X160.274Y-90.551
X162.687Y-89.662
X165.1Y-88.519
X171.704Y-90.551
X171.958Y-92.837
X176.276Y-79.375
T2
X115.062Y-85.725
X115.062Y-88.265
X115.062Y-90.805
X117.602Y-85.725
X117.602Y-88.265
X117.602Y-90.805
X128.27Y-83.312
X129.794Y-75.565
X130.81Y-83.312
X131.318Y-108.839
X131.318Y-112.649
X132.334Y-75.565
X133.858Y-108.839
X133.858Y-112.649
X134.874Y-75.565
X137.414Y-75.565
X138.938Y-123.825
X139.954Y-75.565
X141.478Y-123.825
X142.494Y-75.565
X144.018Y-123.825
X145.034Y-75.565
X146.558Y-123.825
X147.574Y-75.565
X149.098Y-123.825
X150.114Y-75.565
X151.13Y-101.981
X151.13Y-104.521
X151.638Y-123.825
X152.654Y-75.565
X154.178Y-123.825
X154.686Y-101.981
X154.686Y-104.521
X156.718Y-75.565
X156.718Y-123.825
X159.258Y-75.565
X161.798Y-75.565
X161.798Y-123.825
X164.338Y-75.565
X164.338Y-123.825
X166.878Y-75.565
X166.878Y-123.825
X169.418Y-75.565
X169.418Y-123.825
X171.958Y-75.565
X171.958Y-123.825
X174.498Y-75.565
X174.498Y-123.825
T3
X124.968Y-123.825
X126.238Y-75.565
X177.038Y-90.805
X177.038Y-118.745
T4
X116.421Y-117.053
X116.421Y-121.453
T0
M30
